<?xml version="1.0" standalone="no"?><!DOCTYPE svg PUBLIC "-//W3C//DTD SVG 1.1//EN" "http://www.w3.org/Graphics/SVG/1.1/DTD/svg11.dtd"><svg class="icon" width="64px" height="64.00px" viewBox="0 0 1024 1024" version="1.1" xmlns="http://www.w3.org/2000/svg"><path fill="#000000" d="M307.2 204.8h260.608a189.44 189.44 0 0 1 129.024 41.472A143.872 143.872 0 0 1 743.424 358.4 153.6 153.6 0 0 1 716.8 449.024a153.6 153.6 0 0 1-71.168 51.2 144.896 144.896 0 0 1 89.088 51.2 153.6 153.6 0 0 1 33.28 96.768 153.6 153.6 0 0 1-60.416 134.144 240.64 240.64 0 0 1-141.312 36.864H307.2z m67.072 59.392v208.896h177.152a143.872 143.872 0 0 0 93.184-26.624 98.816 98.816 0 0 0 32.768-79.872 93.696 93.696 0 0 0-31.744-77.312 146.944 146.944 0 0 0-93.184-25.088z m0 267.776v227.84h186.368a179.712 179.712 0 0 0 97.28-24.064 98.304 98.304 0 0 0 43.008-88.576 102.4 102.4 0 0 0-35.328-88.064 162.304 162.304 0 0 0-102.4-27.648z"  /></svg>