<?xml version="1.0" standalone="no"?><!DOCTYPE svg PUBLIC "-//W3C//DTD SVG 1.1//EN" "http://www.w3.org/Graphics/SVG/1.1/DTD/svg11.dtd"><svg class="icon" width="64px" height="64.00px" viewBox="0 0 1024 1024" version="1.1" xmlns="http://www.w3.org/2000/svg"><path fill="#4D4D4D" d="M149.9136 513.6384c63.0784-49.9712 122.88-95.8464 191.6928-148.2752-7.3728-12.288-16.384-24.576-24.576-34.4064-72.9088 53.248-150.7328 110.592-224.4608 164.6592 0 11.4688 0 26.2144 0.8192 38.5024 74.5472 57.344 145.8176 112.2304 222.0032 172.032 9.0112-9.8304 18.0224-22.1184 25.3952-33.5872-65.536-54.0672-131.072-108.9536-190.8736-158.9248z m706.9696 3.2768c-60.6208 48.3328-125.3376 100.7616-192.512 153.1904 8.192 11.4688 17.2032 23.7568 26.2144 32.768 76.1856-57.344 149.0944-112.2304 222.8224-167.936v-38.5024c-73.728-55.7056-149.9136-113.8688-223.6416-167.936-8.192 9.0112-17.2032 21.2992-24.576 32.768 67.9936 54.0672 128.6144 104.0384 191.6928 155.648z" /></svg>