<?xml version="1.0" standalone="no"?><!DOCTYPE svg PUBLIC "-//W3C//DTD SVG 1.1//EN" "http://www.w3.org/Graphics/SVG/1.1/DTD/svg11.dtd"><svg class="icon" width="64px" height="64.00px" viewBox="0 0 1024 1024" version="1.1" xmlns="http://www.w3.org/2000/svg"><path fill="#000000" d="M160.788521 761.54345M380.863822 213.761502l482.901265 0 0 66.514903-482.901265 0 0-66.514903ZM248.817414 158.989037 248.817414 335.049892 204.802968 335.049892 204.802968 203.003484 160.788521 203.003484 160.788521 158.989037ZM380.863822 466.847637l482.901265 0 0 66.514903-482.901265 0 0-66.514903ZM204.802968 531.739577 204.802968 566.135968 292.83493 566.135968 292.83493 610.153484 160.788521 610.153484 160.788521 509.73133 248.817414 468.467531 248.817414 434.070116 160.788521 434.070116 160.788521 390.056694 292.83493 390.056694 292.83493 490.474754ZM380.863822 719.93275l482.901265 0 0 66.514903-482.901265 0 0-66.514903ZM292.83493 643.153062 292.83493 863.228363 160.788521 863.228363 160.788521 819.213917 248.817414 819.213917 248.817414 775.199471 160.788521 775.199471 160.788521 731.185025 248.817414 731.185025 248.817414 687.167508 160.788521 687.167508 160.788521 643.153062ZM292.83493 643.153062" /></svg>