<?xml version="1.0" standalone="no"?><!DOCTYPE svg PUBLIC "-//W3C//DTD SVG 1.1//EN" "http://www.w3.org/Graphics/SVG/1.1/DTD/svg11.dtd"><svg t="1509700359840" class="icon" style="" viewBox="0 0 1251 1024" version="1.1" xmlns="http://www.w3.org/2000/svg" p-id="7395" xmlns:xlink="http://www.w3.org/1999/xlink" width="78.1875" height="64"><defs><style type="text/css"></style></defs><path d="M641.087239 847.176576c-9.107225 0-18.82842-2.148896-29.163585-7.367643-31.824123-16.270211-28.344959-48.196662-26.196063-67.332068 0.61397-5.423404 1.125612-10.64215 1.023284-14.735285l-0.102328-3.479165c-1.023284-42.875587-1.841911-60.680723-12.58639-70.708904-14.018987-13.098031-50.652543-21.898271-109.286699-34.791646-82.067353-15.349256-152.366943-42.159288-208.647547-79.611472-48.912961-32.540422-87.797742-73.267113-115.324073-121.054462-26.196063-45.331468-42.159288-97.621265-46.150095-151.036674-3.069851-40.82902 1.125612-82.27201 11.256121-110.923953 2.762866-7.776956 10.02818-13.098031 18.316778-13.302688 8.288598-0.204657 15.860897 4.809433 18.930748 12.484061 37.452183 92.402518 114.505446 144.794644 235.662236 160.041571 10.949136 1.330269 18.726092 11.358449 17.293495 22.307585-1.330269 10.949136-11.358449 18.726092-22.307585 17.293495-61.090037-7.674628-111.333267-23.740182-153.492555-49.117618-35.098631-21.079644-63.955231-48.708304-86.365144-82.374338-0.716299 12.381733-0.716299 26.093734 0.409313 40.726691 2.455881 33.154392 11.563106 83.295293 40.931348 134.050165 24.45648 42.363945 59.04347 78.690517 102.840012 107.751774 51.982812 34.586989 117.268312 59.350455 194.219247 73.676427 0.204657 0 0.409313 0.102328 0.61397 0.102328 73.267113 16.065554 107.547117 25.172779 128.422105 44.717498 23.330868 22.0006 23.944839 50.959528 25.070451 98.951534l0.102328 3.479165c0.204657 6.753672-0.61397 13.507345-1.330269 20.056361-2.251224 20.772659-1.023284 24.558809 4.604777 27.424003 14.939942 7.572299 25.991406 0.306985 49.424603-19.237734 1.22794-1.023284 2.455881-2.046567 3.683821-3.069851 81.555711-67.434396 189.205156-155.948436 299.515139-242.722894 9.618867-7.572299 21.181973-18.623763 21.284301-28.344959 0.102328-8.493255-8.902568-20.158689-26.810033-34.791646-23.740182-19.44239-48.094334-38.987109-71.527531-57.815529-58.941141-47.275707-119.826521-96.188668-176.925752-148.17148-5.01409-4.604777-10.02818-9.311882-14.837614-13.916658-47.480364-44.922154-61.294694-48.605976-76.234636-36.121915-0.306985 0.306985-7.776956 8.493255-10.335165 47.68502-1.330269 20.363346-0.61397 38.987109-0.511642 42.67093 0.716299 6.139702 2.762866 32.64275-10.949136 53.006096-9.823524 14.632957-24.968122 22.716898-43.796542 23.330868-7.572299 0.306985-15.656241 0.61397-24.251824 1.023284-25.786749 1.125612-55.052663 2.558209-86.569801 2.353553-11.051464-0.102328-19.954032-9.004897-19.851704-20.056361 0.102328-10.949136 9.004897-19.851704 19.954032-19.851704 0 0 0.102328 0 0.102328 0 30.596183 0.102328 59.248126-1.125612 84.625562-2.353553 8.697911-0.409313 16.884181-0.818627 24.558809-1.023284 7.469971-0.306985 10.232837-2.967523 12.177076-5.730389 5.423404-8.083941 4.809433-23.023883 4.297792-26.400719-0.102328-0.511642-0.102328-1.125612-0.204657-1.637254 0-0.920955-1.125612-23.637854 0.61397-49.015289 2.660538-39.191766 10.437494-62.931948 24.45648-74.597382 14.939942-12.484061 39.703408-23.740182 73.062456-6.856001 19.749375 10.02818 38.27081 27.526332 56.280604 44.512841 4.707105 4.502448 9.618867 9.107225 14.325972 13.405016 56.178275 51.164185 116.654342 99.667833 175.083841 146.534226 23.637854 18.930748 47.992006 38.475467 71.834516 58.122514 19.44239 15.860897 41.647647 37.759169 41.44299 66.104127-0.204657 20.772659-12.177076 40.112721-36.531228 59.248126C897.419806 657.050465 789.975017 745.359848 708.623963 812.589587c-1.125612 1.023284-2.353553 1.944239-3.581493 2.967523C688.465274 829.473768 667.283302 847.176576 641.087239 847.176576z" p-id="7396" fill="#000000"></path></svg>