<?xml version="1.0" standalone="no"?><!DOCTYPE svg PUBLIC "-//W3C//DTD SVG 1.1//EN" "http://www.w3.org/Graphics/SVG/1.1/DTD/svg11.dtd"><svg t="1509949139090" class="icon" style="" viewBox="0 0 1585 1024" version="1.1" xmlns="http://www.w3.org/2000/svg" p-id="5232" xmlns:xlink="http://www.w3.org/1999/xlink" width="99.0625" height="64"><defs><style type="text/css"></style></defs><path d="M1142.65992832 829.52839205H761.14292511l376.68767392-405.66364951c14.48798779-14.48798779 14.48798779-33.80530484 0-48.29329266L857.72950824 114.78767613c-4.82932927-4.82932927-14.48798779-9.65865853-24.14664632-9.65865849s-19.31731707 4.82932927-24.14664632 9.65865849l-449.1276129 478.10358848c-4.82932927 4.82932927-9.65865853 14.48798779-9.6586585 24.14664417s4.82932927 19.31731707 9.6586585 24.1466463l202.83182479 188.34383697c24.14664634 19.31731707 53.12262192 33.80530484 77.26926821 33.80530481 4.82932927 0 9.65865853 4.82932927 9.6586585 4.82932929h482.93291557c14.48798779 0 24.14664634-9.65865853 24.14664633-24.14664631 4.82932927-4.82932927-4.82932927-14.48798779-14.48798778-14.48798779z m-309.07706641-671.27675471l260.78377596 241.46645887-323.56505419 347.71170052-260.78377596-241.4664589 323.56505419-347.71170049z m-429.81029585 463.61560069l72.4399368-77.26926607 260.78377596 241.46645888-9.65865854 9.65865853c-33.80530484 38.63463412-91.75725382 38.63463412-130.39188791 4.82932925l-193.17316631-178.68518059z" p-id="5233" fill="#000000"></path></svg>