<?xml version="1.0" standalone="no"?><!DOCTYPE svg PUBLIC "-//W3C//DTD SVG 1.1//EN" "http://www.w3.org/Graphics/SVG/1.1/DTD/svg11.dtd"><svg class="icon" width="64px" height="64.00px" viewBox="0 0 1024 1024" version="1.1" xmlns="http://www.w3.org/2000/svg"><path fill="#000000" d="M500.266667 298.666667l21.333333-10.453334L448 170.666667l-18.56 1.493333C189.44 270.08 74.88 475.306667 85.333333 627.84S205.653333 853.333333 301.226667 853.333333a182.613333 182.613333 0 0 0 183.68-181.12c0-73.813333-45.44-155.946667-170.666667-176.213333A424.746667 424.746667 0 0 1 500.266667 298.666667z m-236.8 208L256 533.333333l27.093333 2.133334c144.64 11.52 160.213333 99.626667 160.213334 137.173333A139.946667 139.946667 0 0 1 301.226667 810.666667c-76.586667 0-163.413333-58.24-172.8-186.026667-9.813333-133.546667 90.453333-313.386667 300.373333-405.333333l32 53.12a464.213333 464.213333 0 0 0-197.333333 234.88zM926.72 298.666667H938.666667l-64-128-18.56 1.493333C615.893333 270.08 501.333333 475.306667 512 627.84S631.893333 853.333333 727.68 853.333333a182.613333 182.613333 0 0 0 183.68-181.12c0-73.813333-45.44-155.946667-170.666667-176.213333A424.746667 424.746667 0 0 1 926.72 298.666667z m-236.8 208l-8.533333 26.666666 27.093333 2.133334c144.64 11.52 160.213333 99.626667 160.213333 137.173333A139.946667 139.946667 0 0 1 727.68 810.666667c-76.586667 0-163.413333-58.24-172.8-186.026667-9.813333-133.546667 90.453333-313.386667 300.373333-405.333333l32 53.12a464.213333 464.213333 0 0 0-197.333333 234.88z"  /></svg>