<?xml version="1.0" standalone="no"?><!DOCTYPE svg PUBLIC "-//W3C//DTD SVG 1.1//EN" "http://www.w3.org/Graphics/SVG/1.1/DTD/svg11.dtd"><svg class="icon" width="64px" height="64.00px" viewBox="0 0 1024 1024" version="1.1" xmlns="http://www.w3.org/2000/svg"><path fill="#000000" d="M902.4 253.867H283.733c-12.8 0-21.333-8.534-21.333-21.334s8.533-21.333 21.333-21.333H902.4c12.8 0 21.333 8.533 21.333 21.333 0 10.667-8.533 21.334-21.333 21.334z m-795.733-21.334a36.267 36.267 0 1 0 72.533 0 36.267 36.267 0 1 0-72.533 0zM902.4 535.467H283.733c-12.8 0-21.333-8.534-21.333-21.334s8.533-21.333 21.333-21.333H902.4c12.8 0 21.333 8.533 21.333 21.333s-8.533 21.334-21.333 21.334z m-795.733-21.334a36.267 36.267 0 1 0 72.533 0 36.267 36.267 0 1 0-72.533 0zM902.4 817.067H283.733c-12.8 0-21.333-8.534-21.333-21.334s8.533-21.333 21.333-21.333H902.4c12.8 0 21.333 8.533 21.333 21.333 0 10.667-8.533 21.334-21.333 21.334z m-795.733-21.334a36.267 36.267 0 1 0 72.533 0 36.267 36.267 0 1 0-72.533 0z" /></svg>