<?xml version="1.0" standalone="no"?><!DOCTYPE svg PUBLIC "-//W3C//DTD SVG 1.1//EN" "http://www.w3.org/Graphics/SVG/1.1/DTD/svg11.dtd"><svg class="icon" width="64px" height="64.00px" viewBox="0 0 1024 1024" version="1.1" xmlns="http://www.w3.org/2000/svg"><path fill="#000000" d="M192.101179 532.683065c0-20.310581 0-39.683814 0-59.754942 63.510476 0 126.621862 0 192.038758 0-7.070023-5.623068-12.467963-9.794064-17.733896-14.125719-29.883611-24.586978-54.332443-53.17713-65.091484-91.287099-17.028838-60.321854 3.545756-148.370189 93.379761-182.687786 38.646182-14.763239 78.839603-19.823488 119.720685-20.754696 60.941977-1.387603 121.156384 6.51846 181.25925 15.393595 0.932232 0.137123 1.807159 0.659009 3.411703 1.2689-3.302209 17.648962-6.585999 35.20071-9.964956 53.263088-19.857257-2.62478-39.1036-5.263887-58.376549-7.698333-48.63979-6.14393-97.348142-11.117199-146.472979-6.894014-22.226211 1.910513-44.096311 5.696746-65.00348 13.793144-44.759413 17.33276-67.667146 50.791803-69.073168 98.821703-0.908696 31.022551 12.882402 54.787814 34.516118 75.046207 25.272593 23.666002 55.737442 39.383986 85.776595 55.857169 13.603833 7.460925 27.323299 10.262738 42.795689 10.19213 102.773711-0.469698 205.550493-0.243547 308.326251-0.243547 3.228531 0 6.457062 0 10.289344 0 0 19.964704 0 39.497573 0 59.659775-75.772754 0-151.199631 0-226.625484 0-0.268106 0.525979-0.536212 1.052982-0.804319 1.578961 2.623757 1.919722 5.211698 3.892657 7.877411 5.752004 42.073234 29.336142 69.730131 68.535933 82.432431 118.468159 18.618033 73.182766-9.342786 135.937019-76.651774 170.547281-31.540344 16.21838-65.391313 24.25645-100.382245 28.243251-62.9671 7.1744-125.20049 0.299829-187.260941-9.782807-11.057847-1.796926-22.074761-3.849678-33.813107-5.906523 3.371794-18.046005 6.64842-35.585473 10.091846-54.019311 12.034081 2.065032 23.506367 4.069689 34.989909 5.998621 42.928718 7.209192 86.046748 12.760628 129.674385 12.05864 38.657438-0.62217 76.924997-4.417613 112.661919-20.777209 31.156604-14.262842 53.900607-36.464493 57.357336-72.070432 4.561899-46.994314-10.451026-87.129406-47.347354-117.943203-30.79026-25.714661-66.596767-43.054585-102.193497-60.676941-3.115967-1.543146-7.299243-1.2689-10.987239-1.27197-93.02365-0.062422-186.0473-0.049119-279.069927-0.049119C198.875466 532.683065 195.900715 532.683065 192.101179 532.683065z" /></svg>