<?xml version="1.0" standalone="no"?><!DOCTYPE svg PUBLIC "-//W3C//DTD SVG 1.1//EN" "http://www.w3.org/Graphics/SVG/1.1/DTD/svg11.dtd"><svg t="1509101914965" class="icon" style="" viewBox="0 0 1195 1024" version="1.1" xmlns="http://www.w3.org/2000/svg" p-id="21809" xmlns:xlink="http://www.w3.org/1999/xlink" width="74.6875" height="64"><defs><style type="text/css"></style></defs><path d="M887.466667 509.03053 887.466667 363.488232 1129.244443 363.488232 1129.244443 509.03053M887.466667 703.086923 887.466667 557.544625 1129.244443 557.544625 1129.244443 703.086923M1129.244443 800.115118C1129.244443 880.357437 1064.157867 945.657412 984.177777 945.657412L887.466667 945.657412 887.466667 751.601019 1129.244443 751.601019 1129.244443 800.115118 1129.244443 800.115118ZM645.68889 945.657412 645.68889 751.601019 839.11111 751.601019 839.11111 945.657412M403.91111 945.657412 403.91111 751.601019 597.333333 751.601019 597.333333 945.657412M210.48889 945.657412C130.5088 945.657412 65.422223 880.357437 65.422223 800.115118L65.422223 751.601019 355.555557 751.601019 355.555557 945.657412 210.48889 945.657412 210.48889 945.657412ZM65.422223 703.086923 65.422223 557.544625 355.555557 557.544625 355.555557 703.086923M65.422223 509.03053 65.422223 363.488232 355.555557 363.488232 355.555557 509.03053M403.91111 509.03053 403.91111 363.488232 597.333333 363.488232 597.333333 509.03053M403.91111 703.086923 403.91111 557.544625 597.333333 557.544625 597.333333 703.086923M645.68889 703.086923 645.68889 557.544625 839.11111 557.544625 839.11111 703.086923M645.68889 509.03053 645.68889 363.488232 839.11111 363.488232 839.11111 509.03053M984.177777 23.889545 500.622223 23.889545 500.622223 72.403644 984.177777 72.403644C1064.157867 72.403644 1129.244443 137.703619 1129.244443 217.945938L1129.244443 314.974136 65.422223 314.974136 65.422223 217.945938C65.422223 137.703619 130.5088 72.403644 210.48889 72.403644L210.48889 23.889545C103.671467 23.889545 17.066667 110.778296 17.066667 217.945938L17.066667 800.115118C17.066667 907.282763 103.671467 994.171511 210.48889 994.171511L984.177777 994.171511C1090.9952 994.171511 1177.6 907.282763 1177.6 800.115118L1177.6 217.945938C1177.6 110.778296 1090.9952 23.889545 984.177777 23.889545L984.177777 23.889545ZM307.2 72.403644 403.91111 72.403644 403.91111 23.889545 307.2 23.889545 307.2 72.403644 307.2 72.403644ZM742.4 217.945938 839.11111 217.945938 839.11111 169.431839 742.4 169.431839 742.4 217.945938 742.4 217.945938ZM935.822223 217.945938 1032.533333 217.945938 1032.533333 169.431839 935.822223 169.431839 935.822223 217.945938 935.822223 217.945938Z" p-id="21810" fill="#000000"></path></svg>