<?xml version="1.0" standalone="no"?><!DOCTYPE svg PUBLIC "-//W3C//DTD SVG 1.1//EN" "http://www.w3.org/Graphics/SVG/1.1/DTD/svg11.dtd"><svg class="icon" width="64px" height="64.00px" viewBox="0 0 1024 1024" version="1.1" xmlns="http://www.w3.org/2000/svg"><path fill="#4D4D4D" d="M147.2 180.8h728c41.6 0 76.8 35.2 76.8 76.8v552c0 41.6-35.2 76.8-76.8 76.8h-728c-41.6 0-76.8-35.2-76.8-76.8v-552c0-41.6 35.2-76.8 76.8-76.8v0zM147.2 926.4c243.2 0 486.4 0 728 0 64 0 115.2-51.2 115.2-115.2 0-184 0-368 0-552 0-64-51.2-115.2-115.2-115.2-243.2 0-486.4 0-728 0-64 0-115.2 51.2-115.2 115.2 0 184 0 368 0 552 0 62.4 51.2 115.2 115.2 115.2z"  /><path fill="#4D4D4D" d="M201.6 419.2c0 44.8 36.8 81.6 81.6 81.6s81.6-36.8 81.6-81.6c0-44.8-36.8-81.6-81.6-81.6-44.8 0-81.6 36.8-81.6 81.6v0zM240 419.2c0-24 19.2-43.2 43.2-43.2s43.2 19.2 43.2 43.2c0 24-19.2 43.2-43.2 43.2-22.4 0-43.2-19.2-43.2-43.2z"  /><path fill="#4D4D4D" d="M675.2 499.2l203.2 203.2c8 8 8 19.2 0 27.2v0c-8 8-19.2 8-27.2 0l-203.2-203.2c-14.4-14.4-40-14.4-54.4 0l-163.2 161.6c-30.4 30.4-80 30.4-110.4 0l-25.6-25.6c-14.4-14.4-40-14.4-54.4 0l-67.2 67.2c-8 8-19.2 8-27.2 0v0c-8-8-8-19.2 0-27.2l67.2-67.2c30.4-30.4 80-30.4 110.4 0l25.6 25.6c14.4 14.4 40 14.4 54.4 0l161.6-161.6c30.4-30.4 80-30.4 110.4 0z"  /></svg>