<?xml version="1.0" standalone="no"?><!DOCTYPE svg PUBLIC "-//W3C//DTD SVG 1.1//EN" "http://www.w3.org/Graphics/SVG/1.1/DTD/svg11.dtd"><svg class="icon" width="64px" height="64.00px" viewBox="0 0 1024 1024" version="1.1" xmlns="http://www.w3.org/2000/svg"><path fill="#4D4D4D" d="M256 576h64v64H256c-96 0-192-108.16-192-224S163.2 192 256 192h256c92.8 0 192 108.16 192 224 0 90.24-58.24 174.08-128 208V549.76c37.12-28.8 64-81.28 64-133.76C640 334.08 574.72 256 512 256H256c-62.72 0-128 78.08-128 160S192 576 256 576z m576-192h-64v64h64c64 0 128 78.08 128 160S894.72 768 832 768H576c-62.72 0-128-78.08-128-160 0-53.12 26.88-104.96 64-133.76V400c-69.76 33.92-128 117.76-128 208C384 723.84 483.2 832 576 832h256c92.8 0 192-108.16 192-224S928 384 832 384z"  /></svg>