<?xml version="1.0" standalone="no"?><!DOCTYPE svg PUBLIC "-//W3C//DTD SVG 1.1//EN" "http://www.w3.org/Graphics/SVG/1.1/DTD/svg11.dtd"><svg class="icon" width="64px" height="64.00px" viewBox="0 0 1024 1024" version="1.1" xmlns="http://www.w3.org/2000/svg"><path fill="#000000" d="M16 202.976l186 0 0 62L16 264.976 16 202.976zM16 326.976l186 0 0 62L16 388.976 16 326.976zM16 574.976l186 0 0 62L16 636.976 16 574.976zM16 698.976l186 0 0 62L16 760.976 16 698.976zM264 714.464l34.88-36.816 71.68 71.68L512 573.024l34.88 34.88-176.32 213.12L264 714.464zM265.936 346.336l34.88-36.816 71.68 71.68 141.44-176.32 34.88 34.88-176.32 213.12L265.936 346.336zM636 202.976 1008 202.976l0 62L636 264.976 636 202.976zM636 326.976 1008 326.976l0 62L636 388.976 636 326.976zM636 574.976 1008 574.976l0 62L636 636.976 636 574.976zM636 698.976 1008 698.976l0 62L636 760.976 636 698.976z" /></svg>